<?xml version="1.0" standalone="no"?>
<!DOCTYPE svg PUBLIC "-//W3C//DTD SVG 20010904//EN"
 "http://www.w3.org/TR/2001/REC-SVG-20010904/DTD/svg10.dtd">
<svg version="1.0" xmlns="http://www.w3.org/2000/svg"
 width="181.000000pt" height="162.000000pt" viewBox="0 0 181.000000 162.000000"
 preserveAspectRatio="xMidYMid meet">
<g transform="translate(0.000000,162.000000) scale(0.050000,-0.050000)"
fill="#000000" stroke="none">
<path d="M2656 2838 c-975 -125 -1815 -978 -1792 -1818 3 -132 -5 -290 -20
-370 -44 -232 -4 -320 109 -241 35 25 40 44 32 129 -6 55 -4 140 3 188 l14 89
224 9 c771 33 1516 760 1703 1663 52 252 44 353 -27 353 -32 0 -71 3 -85 7
-15 4 -87 0 -161 -9z m119 -91 c44 -11 65 -67 25 -67 -11 0 -94 -35 -185 -79
-192 -91 -186 -92 -151 32 26 94 30 97 117 109 135 18 145 18 194 5z m-435
-102 c-10 -30 -28 -92 -39 -138 -16 -63 -35 -88 -82 -107 -33 -14 -97 -52
-142 -84 -101 -74 -99 -76 -70 112 l24 158 140 55 c182 72 191 72 169 4z m480
-34 c0 -33 -45 -211 -54 -211 -5 0 -73 19 -149 42 l-140 43 147 65 c140 63
196 80 196 61z m-966 -283 c-13 -177 -21 -195 -139 -286 -33 -25 -35 -15 -35
155 l0 183 83 60 c109 79 105 85 91 -112z m685 2 c201 -68 205 -72 167 -186
-18 -52 -34 -97 -37 -101 -3 -3 -70 17 -150 46 -79 28 -226 66 -326 83 -101
18 -185 34 -188 36 -14 14 294 171 336 171 29 1 118 -21 198 -49z m-1019 -409
c-12 -44 -41 -104 -66 -132 l-45 -52 -26 164 -25 165 86 88 86 88 6 -120 c3
-67 -4 -157 -16 -201z m594 148 c75 -17 219 -59 319 -94 l184 -63 -42 -81
c-22 -45 -62 -115 -88 -156 l-47 -75 -125 59 c-340 161 -539 241 -595 241 -77
0 -67 18 64 121 111 88 136 92 330 48z m-868 -284 c16 -106 -11 -248 -60 -317
-22 -32 -71 -116 -107 -188 -128 -250 -89 91 45 395 91 205 106 219 122 110z
m494 -27 c72 -34 196 -88 277 -120 344 -138 349 -144 197 -294 l-107 -105 -48
38 c-27 20 -103 68 -169 104 -66 37 -173 101 -237 143 -65 41 -148 81 -185 88
l-68 12 82 98 c97 116 92 115 258 36z m-166 -363 c112 -69 245 -149 295 -179
117 -70 115 -75 -36 -150 l-126 -62 -100 53 c-214 115 -407 227 -407 237 0 31
126 226 146 226 13 0 116 -56 228 -125z m-276 -332 c84 -53 170 -105 192 -115
28 -12 -34 -20 -198 -24 -281 -6 -263 -17 -210 123 52 136 31 134 216 16z"/>
</g>
</svg>
